<svg width="60" height="60" viewBox="0 0 60 60" fill="none" xmlns="http://www.w3.org/2000/svg">
  <circle cx="30" cy="30" r="28" fill="#6b8e6b" opacity="0.1"/>
  <path d="M20 28C20 28 18 26 18 23C18 20 20 18 23 18C25 18 26 19 27 20C27 18 28 15 30 15C32 15 33 18 33 20C34 19 35 18 37 18C40 18 42 20 42 23C42 26 40 28 40 28L30 42L20 28Z" fill="#6b8e6b"/>
  <path d="M23 22C23 22 24 23 26 25M37 22C37 22 36 23 34 25" stroke="#4a6e4a" stroke-width="1.5" stroke-linecap="round"/>
  <circle cx="30" cy="32" r="3" fill="#8ab88a"/>
</svg>
