<svg width="60" height="60" viewBox="0 0 60 60" fill="none" xmlns="http://www.w3.org/2000/svg">
  <!-- Background circle -->
  <circle cx="30" cy="30" r="28" fill="#6b8e6b" opacity="0.1"/>
  
  <!-- Hand shape representing handmade craftsmanship -->
  <g transform="translate(15, 18)">
    <!-- Palm -->
    <path d="M8 12 L8 28 L22 28 L22 12 C22 10 20 8 18 8 L12 8 C10 8 8 10 8 12 Z" fill="#6b8e6b"/>
    
    <!-- Fingers -->
    <rect x="10" y="2" width="2.5" height="10" rx="1.25" fill="#6b8e6b"/>
    <rect x="13" y="0" width="2.5" height="12" rx="1.25" fill="#6b8e6b"/>
    <rect x="16" y="2" width="2.5" height="10" rx="1.25" fill="#6b8e6b"/>
    <rect x="19" y="4" width="2.5" height="8" rx="1.25" fill="#6b8e6b"/>
    
    <!-- Thumb -->
    <ellipse cx="7" cy="18" rx="2.5" ry="4" fill="#6b8e6b"/>
    
    <!-- Craft detail - small heart in palm -->
    <path d="M13 18 C13 18 12 17 12 16.5 C12 16 12.5 15.5 13 15.5 C13.3 15.5 13.5 15.7 13.5 16 C13.5 15.7 13.7 15.5 14 15.5 C14.5 15.5 15 16 15 16.5 C15 17 14 18 14 18 L13.5 19 L13 18 Z" fill="#8ab88a"/>
  </g>
  
  <!-- "SVU" stylized mark - Simple, Verified, Unique -->
  <circle cx="42" cy="18" r="8" fill="#4a6e4a" opacity="0.9"/>
  <text x="42" y="22" font-family="Arial, sans-serif" font-size="10" font-weight="bold" fill="white" text-anchor="middle">✓</text>
</svg>
